<?xml version="1.0" encoding="utf-8"?>
<!-- Generator: Adobe Illustrator 21.0.2, SVG Export Plug-In . SVG Version: 6.00 Build 0)  -->
<svg version="1.1" id="Calque_1" xmlns="http://www.w3.org/2000/svg" xmlns:xlink="http://www.w3.org/1999/xlink" x="0px" y="0px"
	 viewBox="0 0 473.3 86" style="enable-background:new 0 0 473.3 86;" xml:space="preserve">
<style type="text/css">
	.st0{fill:#263238;}
	.st1{fill:#FFFFFF;}
	.st2{fill:#263238;stroke:#263238;stroke-miterlimit:10;}
	.st3{opacity:0.15;}
	.st4{fill:#20A8D7;}
</style>
<polygon class="st0" points="265.7,64.5 265.7,21.5 228.5,0 191.3,21.5 191.3,64.5 228.5,86 "/>
<polygon class="st1" points="258,60.1 258,26 228.5,8.9 199,26 199,60.1 228.5,77.1 "/>
<polygon class="st0" points="250.6,55.8 250.6,30.2 228.5,17.5 206.4,30.2 206.4,55.8 228.5,68.5 "/>
<polygon class="st2" points="258,26 250.6,30.2 250.6,43 258,43 "/>
<polygon class="st1" points="258,40.9 258,48.5 237.6,48.5 250.7,40.9 "/>
<polyline class="st3" points="191.3,64.5 228.5,86 265.7,64.5 265.7,21.5 "/>
<g>
	<path class="st4" d="M0,64.6v-42h24.3c3,0,5.7,0.5,8.2,1.5c2.5,1,4.7,2.4,6.5,4.2c1.8,1.8,3.2,4,4.2,6.5c1,2.5,1.5,5.3,1.5,8.4
		s-0.5,5.9-1.5,8.5c-1,2.6-2.4,4.9-4.2,6.8c-1.8,1.9-4,3.4-6.5,4.5c-2.5,1.1-5.2,1.6-8.2,1.6H0z M24.3,57.3c1.9,0,3.6-0.3,5.2-1
		c1.6-0.7,3-1.6,4.2-2.9c1.2-1.2,2.1-2.7,2.7-4.4c0.7-1.7,1-3.5,1-5.5s-0.3-3.8-1-5.5c-0.7-1.7-1.6-3.1-2.7-4.3
		c-1.2-1.2-2.6-2.1-4.2-2.8c-1.6-0.7-3.3-1-5.2-1h-17v27.3H24.3z"/>
	<path class="st4" d="M89,64.6L82.7,54H62.8l3.5-6h12.9l-9.4-15.7L50.7,64.6h-8.4l24.2-40.2c0.4-0.7,0.9-1.3,1.5-1.7
		c0.6-0.4,1.3-0.6,2.1-0.6c0.8,0,1.5,0.2,2.1,0.6c0.6,0.4,1,1,1.5,1.7l24.2,40.2H89z"/>
	<path class="st4" d="M108.4,64.6V29.9H92.4v-7.3h39.2v7.3h-15.9v34.7H108.4z"/>
	<path class="st4" d="M172.4,64.6L166.1,54h-19.9l3.5-6h12.9l-9.4-15.7l-19.1,32.2h-8.4l24.2-40.2c0.4-0.7,0.9-1.3,1.5-1.7
		c0.6-0.4,1.3-0.6,2.1-0.6c0.8,0,1.5,0.2,2.1,0.6c0.6,0.4,1,1,1.5,1.7l24.2,40.2H172.4z"/>
</g>
<g>
	<path class="st4" d="M297.2,64.6c-2.9,0-5.6-0.5-8.1-1.6c-2.5-1.1-4.6-2.6-6.5-4.5s-3.3-4.2-4.3-6.8c-1-2.6-1.5-5.5-1.5-8.5
		c0-3.1,0.5-5.9,1.5-8.4c1-2.5,2.4-4.7,4.3-6.5c1.8-1.8,4-3.2,6.5-4.2c2.5-1,5.2-1.5,8.1-1.5H320v7.3h-22.8c-1.9,0-3.6,0.3-5.2,1
		c-1.6,0.7-3,1.6-4.1,2.8c-1.2,1.2-2.1,2.6-2.7,4.3c-0.7,1.7-1,3.5-1,5.5c0,2,0.3,3.8,1,5.5c0.7,1.7,1.6,3.1,2.7,4.4
		c1.2,1.2,2.5,2.2,4.1,2.9c1.6,0.7,3.3,1,5.2,1h18V46.3h-19v-6.2h26.4v24.4H297.2z"/>
	<path class="st4" d="M348.5,64.6c-2.9,0-5.6-0.5-8.1-1.6c-2.5-1.1-4.6-2.6-6.5-4.5s-3.3-4.2-4.3-6.8c-1-2.6-1.5-5.5-1.5-8.5
		c0-3.1,0.5-5.9,1.5-8.4c1-2.5,2.4-4.7,4.3-6.5c1.8-1.8,4-3.2,6.5-4.2c2.5-1,5.2-1.5,8.1-1.5h10.2c3,0,5.8,0.5,8.4,1.5
		c2.5,1,4.7,2.4,6.5,4.2c1.8,1.8,3.2,4,4.2,6.5c1,2.5,1.5,5.3,1.5,8.4s-0.5,5.9-1.5,8.5c-1,2.6-2.4,4.9-4.3,6.8s-4,3.4-6.5,4.5
		c-2.5,1.1-5.3,1.6-8.3,1.6H348.5z M358.7,57.3c1.9,0,3.7-0.3,5.3-1c1.6-0.7,3-1.6,4.2-2.9c1.2-1.2,2.1-2.7,2.7-4.4
		c0.7-1.7,1-3.5,1-5.5s-0.3-3.8-1-5.5s-1.6-3.1-2.7-4.3c-1.2-1.2-2.6-2.1-4.2-2.8c-1.6-0.7-3.4-1-5.3-1h-10.2c-1.9,0-3.6,0.3-5.2,1
		c-1.6,0.7-3,1.6-4.1,2.8c-1.2,1.2-2.1,2.6-2.7,4.3c-0.7,1.7-1,3.5-1,5.5c0,2,0.3,3.8,1,5.5c0.7,1.7,1.6,3.1,2.7,4.4
		c1.2,1.2,2.5,2.2,4.1,2.9c1.6,0.7,3.3,1,5.2,1H358.7z"/>
	<path class="st4" d="M392.1,33.9v30.7h-7V26.5c0-1.3,0.3-2.4,1-3.2c0.7-0.8,1.6-1.2,2.7-1.2c0.5,0,1.1,0.1,1.6,0.3
		c0.5,0.2,1,0.6,1.6,1.2L421.6,53V22.2h7v38.5c0,1.4-0.3,2.5-1,3.2c-0.7,0.8-1.6,1.2-2.6,1.2c-1.2,0-2.3-0.5-3.4-1.6L392.1,33.9z"/>
	<path class="st4" d="M435.7,64.6v-42h37.5v7.3H443v27.3h30.3v7.3H435.7z M448.4,46.3v-6.2h23.3v6.2H448.4z"/>
</g>
</svg>
